<?xml version="1.0" encoding="UTF-8"?>
<svg id="Layer_1" xmlns="http://www.w3.org/2000/svg" version="1.1" viewBox="0 0 240 234">
  <!-- Generator: Adobe Illustrator 29.8.0, SVG Export Plug-In . SVG Version: 2.1.1 Build 160)  -->
  <defs>
    <style>
      .st0 {
        fill: #eb1000;
      }

      .st1 {
        fill: #fff;
        stroke: #bcbec0;
        stroke-miterlimit: 10;
        stroke-width: 4px;
      }
    </style>
  </defs>
  <path class="st1" d="M42.5,0h155c23.5,0,42.5,19,42.5,42.5v149c0,23.5-19,42.5-42.5,42.5H42.5c-23.5,0-42.5-19-42.5-42.5V42.5C0,19,19,0,42.5,0Z"/>
  <path id="_256" class="st0" d="M186.6,176h-28.5c-2.5,0-4.8-1.4-5.8-3.8l-30.9-72.4c-.2-.7-1-1.1-1.7-.9-.4.1-.8.5-.9.9l-19.3,45.9c-.4.8,0,1.8.9,2.1.2.1.4.1.6.1h21.2c1.3,0,2.5.8,3,2l9.3,20.7c.8,1.9-.1,4.2-2,5-.5.2-1,.3-1.5.3H53.7c-1.9,0-3.5-1.6-3.5-3.5,0-.5.1-.9.3-1.4l49.1-116.9c1-2.5,3.5-4.2,6.2-4.1h28.3c2.7,0,5.2,1.6,6.2,4.1l49.5,116.9c.8,1.8-.1,3.9-1.8,4.6-.5.2-.9.3-1.4.4Z"/>
</svg>